<svg width="512" height="512" viewBox="0 0 512 512" fill="none" xmlns="http://www.w3.org/2000/svg">
  <!-- Background circle -->
  <circle cx="256" cy="256" r="240" fill="url(#gradient)" opacity="0.95"/>
  
  <!-- Dollar sign icon (centralizado e maior) -->
  <path d="M256 128V160M256 352V384M224 192C224 176 240 160 256 160H272C288 160 304 176 304 192C304 208 288 224 272 224H240C224 224 208 240 208 256C208 272 224 288 240 288H272C288 288 304 304 304 320C304 336 288 352 272 352H240C224 352 208 336 208 320" 
        stroke="white" 
        stroke-width="24" 
        stroke-linecap="round" 
        stroke-linejoin="round"/>
  
  <!-- Gradient definition -->
  <defs>
    <linearGradient id="gradient" x1="0%" y1="0%" x2="100%" y2="100%">
      <stop offset="0%" style="stop-color:#1e40af;stop-opacity:1" />
      <stop offset="100%" style="stop-color:#3b82f6;stop-opacity:1" />
    </linearGradient>
  </defs>
</svg>

