<svg width="200" height="60" viewBox="0 0 200 60" fill="none" xmlns="http://www.w3.org/2000/svg">
  <!-- Background circle -->
  <circle cx="30" cy="30" r="25" fill="url(#gradient)" opacity="0.9"/>
  
  <!-- Dollar sign icon -->
  <path d="M30 15V20M30 40V45M25 22.5C25 20.567 26.567 19 28.5 19H31.5C33.433 19 35 20.567 35 22.5C35 24.433 33.433 26 31.5 26H28.5C26.567 26 25 27.567 25 29.5C25 31.433 26.567 33 28.5 33H31.5C33.433 33 35 34.567 35 36.5C35 38.433 33.433 40 31.5 40H28.5C26.567 40 25 38.433 25 36.5" 
        stroke="white" 
        stroke-width="2.5" 
        stroke-linecap="round" 
        stroke-linejoin="round"/>
  
  <!-- Gradient definition -->
  <defs>
    <linearGradient id="gradient" x1="0%" y1="0%" x2="100%" y2="100%">
      <stop offset="0%" style="stop-color:#1e40af;stop-opacity:1" />
      <stop offset="100%" style="stop-color:#3b82f6;stop-opacity:1" />
    </linearGradient>
  </defs>
  
  <!-- Text -->
  <text x="65" y="30" font-family="Arial, sans-serif" font-size="16" font-weight="bold" fill="currentColor">Sistema de Gestão VANDE</text>
</svg>

